<svg xmlns="http://www.w3.org/2000/svg" width="49.9" height="54.4" viewBox="0 0 49.9 54.4">
  <g id="Grupo_131" data-name="Grupo 131" transform="translate(-1049 -367)">
    <path id="XMLID_24_" d="M21.6,18.1A1.1,1.1,0,1,1,20.5,17a1.11,1.11,0,0,1,1.1,1.1Zm0,0" transform="translate(1049 367.1)" fill="#707070"/>
    <path id="XMLID_21_" d="M29.9,18.1A1.1,1.1,0,1,1,28.8,17a1.11,1.11,0,0,1,1.1,1.1Zm0,0" transform="translate(1049 367.1)" fill="#707070"/>
    <path id="XMLID_13_" d="M42.1,37.7c-2-.5-3.9-.9-6-1.3L34,33.2a1.374,1.374,0,0,0-.8-.5,1.222,1.222,0,0,0-.9.4l-7.4,8.4-7.4-7.9a1.135,1.135,0,0,0-.8-.3,1.234,1.234,0,0,0-.8.4l-2.1,2.8c-2.2.4-4.1.8-6.1,1.3A9.959,9.959,0,0,0,0,47.6v2.5a4.225,4.225,0,0,0,4.2,4.2H45.7a4.225,4.225,0,0,0,4.2-4.2V47.6a10.472,10.472,0,0,0-7.8-9.9Zm-9.2-2.2,1.6,2.3-3.9,7.6-4.1-2.7Zm-16.1.4,6.4,6.9L19,45.5l-3.5-7.9Zm3.5,16.2H4.2a2.006,2.006,0,0,1-2-2V47.6a8.043,8.043,0,0,1,6-7.8,54.094,54.094,0,0,1,5.5-1.2l3.9,8.9a1.057,1.057,0,0,0,.7.6,1.412,1.412,0,0,0,.9-.1l2.1-1.3Zm2.1,0,1.2-7,1.3-.8,1.4.9,1.6,6.9H22.4Zm23.2,0H30l-1.2-5.3,1.7,1.1a1.421,1.421,0,0,0,.6.2h.3a1.794,1.794,0,0,0,.7-.5l4.5-8.9c1.8.3,3.4.7,5.1,1.1a8.021,8.021,0,0,1,6.1,7.8v2.5a2.261,2.261,0,0,1-2.2,2Zm0,0" transform="translate(1049 367.1)" fill="#707070"/>
    <path id="XMLID_8_" d="M40.4,4a1.11,1.11,0,0,0-1.1,1.1V6.5a3.9,3.9,0,0,1-3.9,3.9H18.6a6.018,6.018,0,0,0-6,6V22a7.569,7.569,0,0,0,.1,1.5c-2.2-.9-2.3-3.7-2.3-4.7V8.8a3.543,3.543,0,0,1,3.5-3.5h1.3a1.11,1.11,0,0,0,1.1-1.1,2.112,2.112,0,0,1,2.1-2.1H35.9A1.11,1.11,0,0,0,37,1,1.11,1.11,0,0,0,35.9-.1H18.3a4.289,4.289,0,0,0-4.1,3.2h-.4A5.591,5.591,0,0,0,8.2,8.7v9.9c0,3.9,1.9,6.5,5,7a12.107,12.107,0,0,0,23.6-3.8V12.2a6.015,6.015,0,0,0,4.7-5.9V5a1.09,1.09,0,0,0-1.1-1ZM34.6,22a10,10,0,1,1-20,0V16.4a3.9,3.9,0,0,1,3.9-3.9h16V22Zm0,0" transform="translate(1049 367.1)" fill="#707070"/>
    <path id="XMLID_5_" d="M28.7,24.9a1.088,1.088,0,0,0-1.5,0,3.492,3.492,0,0,1-2.4,1,3.581,3.581,0,0,1-2.5-1.1,1.063,1.063,0,1,0-1.6,1.4,5.534,5.534,0,0,0,4,1.8,5.7,5.7,0,0,0,3.9-1.6.892.892,0,0,0,.1-1.5Zm0,0" transform="translate(1049 367.1)" fill="#707070"/>
    <path id="XMLID_2_" d="M41.4,1.1a1.1,1.1,0,1,1-2.2,0A1.11,1.11,0,0,1,40.3,0a1.049,1.049,0,0,1,1.1,1.1Zm0,0" transform="translate(1049 367.1)" fill="#707070"/>
  </g>
</svg>
