<svg xmlns="http://www.w3.org/2000/svg" width="53.2" height="54.3" viewBox="0 0 53.2 54.3">
  <g id="Grupo_133" data-name="Grupo 133" transform="translate(-1047 -497)">
    <path id="XMLID_30_" d="M40.4,0H5.6A5.591,5.591,0,0,0,0,5.6H0V50.3a4.012,4.012,0,0,0,4,4H32.8a4.012,4.012,0,0,0,4-4V17.2h6.5a2.647,2.647,0,0,0,2.6-2.6V5.7A5.794,5.794,0,0,0,40.4,0ZM34.6,5.6h0V50.3a1.817,1.817,0,0,1-1.9,1.8H4a1.793,1.793,0,0,1-1.8-1.8V5.6A3.543,3.543,0,0,1,5.7,2.1H35.9a5.6,5.6,0,0,0-1.3,3.5Zm9.2,8.9a.472.472,0,0,1-.5.5H36.8V5.6a3.408,3.408,0,0,1,1.1-2.5,3.69,3.69,0,0,1,2.4-1h.1a3.614,3.614,0,0,1,3.4,3.6Zm0,0" transform="translate(1047 497)" fill="#707070"/>
    <path id="XMLID_26_" d="M14,6.2a8.4,8.4,0,1,0,8.4,8.4A8.451,8.451,0,0,0,14,6.2Zm0,14.6a6.3,6.3,0,1,1,6.3-6.3A6.274,6.274,0,0,1,14,20.8Zm0,0" transform="translate(1047 497)" fill="#707070"/>
    <path id="XMLID_23_" d="M14,16.1a1.5,1.5,0,0,1,0-3,1.1,1.1,0,0,0,0-2.2,3.6,3.6,0,0,0,0,7.2A1.11,1.11,0,0,0,15.1,17a1.018,1.018,0,0,0-1.1-.9Zm0,0" transform="translate(1047 497)" fill="#707070"/>
    <path id="XMLID_20_" d="M29.2,27.1H6.7a1.1,1.1,0,0,0,0,2.2H29.1a1.11,1.11,0,0,0,1.1-1.1,1.028,1.028,0,0,0-1-1.1Zm0,0" transform="translate(1047 497)" fill="#707070"/>
    <path id="XMLID_17_" d="M29.2,31.6H6.7a1.1,1.1,0,1,0,0,2.2H29.1a1.11,1.11,0,0,0,1.1-1.1.975.975,0,0,0-1-1.1Zm0,0" transform="translate(1047 497)" fill="#707070"/>
    <path id="XMLID_14_" d="M18.4,36.3H6.7a1.1,1.1,0,1,0,0,2.2H18.4a1.11,1.11,0,0,0,1.1-1.1,1.182,1.182,0,0,0-1.1-1.1Zm0,0" transform="translate(1047 497)" fill="#707070"/>
    <path id="XMLID_8_" d="M50.2,38.8V35.6L52,32.1a.908.908,0,0,0,0-1l-4.7-9.3a.961.961,0,0,0-.9-.6h0a.875.875,0,0,0-.9.6l-4.7,9.4a1.7,1.7,0,0,0,0,1l1.8,3.4v3.2a3.847,3.847,0,0,0-3,3.7v.1l1.1,10.7a1.175,1.175,0,0,0,1.1,1H51a1.164,1.164,0,0,0,1.1-1l1.1-10.7v-.1a3.958,3.958,0,0,0-3-3.7Zm-4.9-12v4.4a1.1,1.1,0,1,0,2.2,0V26.7l2.4,4.8-1.4,2.7H44.3l-1.4-2.6Zm2.8,9.6v2.3H44.7V36.4Zm2,15.7H42.7l-1-9.7a1.666,1.666,0,0,1,1.7-1.6h6a1.735,1.735,0,0,1,1.7,1.6Zm0,0" transform="translate(1047 497)" fill="#707070"/>
    <path id="XMLID_5_" d="M18.6,46.9a1.012,1.012,0,0,0-1.4-.4.616.616,0,0,1-.7-.1,2.622,2.622,0,0,0-2.8-.5l-1.8.7a.367.367,0,0,1-.3-.1l-.2-.3a2.511,2.511,0,0,0-2.6-.7l-2.1.7a1.044,1.044,0,0,0,.6,2l2.1-.7a.6.6,0,0,1,.4.1l.2.3a2.4,2.4,0,0,0,2.5.7h.1l1.8-.7a.614.614,0,0,1,.6.1,3.115,3.115,0,0,0,1.8.7,2.768,2.768,0,0,0,1.3-.3,1.1,1.1,0,0,0,.5-1.5Zm0,0" transform="translate(1047 497)" fill="#707070"/>
    <path id="XMLID_2_" d="M21.7,47.2a1.1,1.1,0,1,1-1.1-1.1,1.11,1.11,0,0,1,1.1,1.1Zm0,0" transform="translate(1047 497)" fill="#707070"/>
  </g>
</svg>
