<svg xmlns="http://www.w3.org/2000/svg" width="184.871" height="188.352" viewBox="0 0 184.871 188.352">
  <g id="Grupo_137" data-name="Grupo 137" transform="translate(-869 -267)">
    <g id="Grupo_113" data-name="Grupo 113" transform="translate(0 -42)">
      <circle id="Elipse_7" data-name="Elipse 7" cx="91" cy="91" r="91" transform="translate(869 309)" fill="#f3f3f3"/>
      <g id="Grupo_53" data-name="Grupo 53" transform="translate(869.455 331.475)">
        <g id="Grupo_50" data-name="Grupo 50" transform="translate(113.282 -0.064)">
          <g id="Grupo_38" data-name="Grupo 38">
            <g id="Grupo_35" data-name="Grupo 35">
              <path id="Caminho_15" data-name="Caminho 15" d="M103.167,28.34c5.912-1.673,11.155-4.908,17.067-7.027,2.9-1.115,5.689-2.231,8.478-3.458,2.789-1.115,5.689-2.342,8.478-3.57,5.577-2.454,11.155-5.02,16.844-7.585,5.689-2.454,11.378-4.685,17.29-6.693h.112a.994.994,0,0,1,1.227.558V.9c.112,5.243-.112,10.485-.446,15.728l-.781,15.617c-.112,2.566-.223,5.243-.223,7.808-.112,2.566-.223,5.243-.223,7.808a59.241,59.241,0,0,0,.335,7.7,45.515,45.515,0,0,1,.669,7.92,1.238,1.238,0,0,1-1.227,1.227h0a6.878,6.878,0,0,1-2.231-.223c-.669-.223-1.227-.446-1.785-.669-1.115-.446-2.119-1-3.123-1.45a46.909,46.909,0,0,1-6.247-3.235,21.309,21.309,0,0,1-3.123-1.673c-1-.558-2.008-1.227-3.012-1.9-2.008-1.339-3.793-2.566-5.689-3.793a5.307,5.307,0,0,0-2.342-1.115,1.208,1.208,0,0,0-.669.112,3.656,3.656,0,0,0-.892.669c-1.227,1.339-2.566,3.793-4.573,5.466a46.441,46.441,0,0,0-4.685,4.685c-.335.446-.669.781-1,1.227l-1,1.45a12.622,12.622,0,0,1-1.115,1.45,5.644,5.644,0,0,1-1.9,1.562,1.661,1.661,0,0,1-2.231-.669.671.671,0,0,1-.112-.446h0c-.669-4.239-.446-8.366-.892-12.27a59.57,59.57,0,0,0-1-5.912l-.669-3.012-.558-3.012a4.754,4.754,0,0,0-3.346-3.458c-1.785-.669-3.9-1.227-5.8-1.9a41.688,41.688,0,0,1-5.689-2.454c-.892-.446-1.785-.892-2.789-1.45-.892-.558-1.673-1.115-2.566-1.562h0a.109.109,0,0,1-.112-.112c-.112-.223,0-.446,0-.669,0-.112,0-.223.112-.223s.223,0,.223.112a.836.836,0,0,0,.112.558l-.112-.112c1,.335,1.9.892,2.789,1.227a29.05,29.05,0,0,0,2.789,1.115c1.9.669,3.793,1.339,5.8,1.9,1,.223,2.008.558,2.9.781a29.9,29.9,0,0,1,3.012.781,7.4,7.4,0,0,1,3.012,1.673,6.106,6.106,0,0,1,1.9,3.123l1.562,5.912a54.409,54.409,0,0,1,1.339,6.135c.558,4.239.558,8.254,1.227,12.047l-2.342-1.227a3.435,3.435,0,0,0,.669-.669,4.953,4.953,0,0,0,.892-1.227l1-1.45c.335-.446.781-1.115,1.115-1.562A37.2,37.2,0,0,1,134.623,54c.223-.223.446-.335.558-.558.223-.112.335-.335.558-.558a11.857,11.857,0,0,0,1-1.227c.669-.892,1.339-1.9,2.231-2.9a6.538,6.538,0,0,1,1.9-1.45,5.441,5.441,0,0,1,2.677-.446l.669.112.558.223c.335.112.669.335,1,.446a9.489,9.489,0,0,1,1.562,1c2.008,1.339,3.793,2.677,5.689,4.016.892.669,1.9,1.227,2.789,1.785,1,.558,1.9,1.115,3.012,1.673,2.119,1.115,4.016,2.342,5.912,3.235,1.115.558,2.119,1.115,3.123,1.562a5.482,5.482,0,0,0,2.566.781L169.2,62.92a43.666,43.666,0,0,0-.335-7.585c-.112-2.677,0-5.354.112-7.92.223-2.677.446-5.243.669-7.808s.335-5.243.558-7.808c.335-5.243.669-10.374.892-15.617A146.036,146.036,0,0,0,170.653.565l1.339.892C166.3,3.8,160.837,6.477,155.259,9.043S144.1,14.174,138.3,16.516l-8.7,3.346c-2.9,1-5.8,2.008-8.812,3.012-1.45.446-2.9.892-4.35,1.45l-4.35,1.562a42.431,42.431,0,0,1-8.924,2.454c-.112,0-.223,0-.223-.112C103.055,28.452,103.055,28.34,103.167,28.34Z" transform="translate(-101.556 0.064)" fill="#707070"/>
            </g>
            <g id="Grupo_36" data-name="Grupo 36" transform="translate(40.318 0.852)">
              <path id="Caminho_16" data-name="Caminho 16" d="M137.7,49.111a29.288,29.288,0,0,1,2.789-6.693l3.458-6.247c1.115-2.119,2.342-4.127,3.681-6.247.669-1,1.45-2.008,2.231-3.012s1.562-1.785,2.231-2.677a111.82,111.82,0,0,0,7.7-11.712c1.227-2.008,2.454-4.016,3.793-6.024A27.622,27.622,0,0,1,165.7,3.6,16.842,16.842,0,0,0,167.706.7a12.542,12.542,0,0,1-1.115,3.458c-.446,1.115-1,2.119-1.45,3.235-1,2.119-1.9,4.35-3.012,6.47a64.422,64.422,0,0,1-7.362,12.493c-.781,1-1.673,1.9-2.342,2.789-.781.892-1.45,1.785-2.119,2.677-1.339,1.9-2.677,3.9-4.016,5.8C143.5,41.638,140.154,44.984,137.7,49.111Z" transform="translate(-137.7 -0.7)" fill="#707070"/>
            </g>
            <g id="Grupo_37" data-name="Grupo 37" transform="translate(20.686 2.079)">
              <path id="Caminho_17" data-name="Caminho 17" d="M120.1,38.834c1.9-1.785,3.57-3.57,5.354-5.466.892-.892,1.785-1.785,2.789-2.677a28.484,28.484,0,0,1,3.123-2.342c4.239-2.9,8.478-5.577,12.27-8.7a29.249,29.249,0,0,0,2.789-2.454c1-.892,2.008-1.673,3.012-2.454,2.008-1.562,4.127-3.123,6.247-4.462,1.115-.669,2.119-1.45,3.235-2.119l3.346-1.9c1.115-.669,2.119-1.339,3.123-2.008A6.471,6.471,0,0,0,166.5,2.915,3.7,3.7,0,0,1,168.065,1.8a3.4,3.4,0,0,0-1.115,1.45,6.678,6.678,0,0,1-.892,1.785,32.9,32.9,0,0,1-2.789,2.789l-5.912,4.8c-1.9,1.562-3.9,3.123-5.8,4.8s-3.681,3.346-5.689,5.02a59.561,59.561,0,0,1-6.358,4.462c-2.231,1.339-4.35,2.677-6.693,3.793-1.115.669-2.119,1.227-3.235,1.9-1,.669-2.008,1.45-3.012,2.119A48.894,48.894,0,0,1,120.1,38.834Z" transform="translate(-120.1 -1.8)" fill="#707070"/>
            </g>
          </g>
          <g id="Grupo_49" data-name="Grupo 49" transform="translate(25.259 13.01)">
            <g id="Grupo_39" data-name="Grupo 39" transform="translate(0 23.983)">
              <path id="Caminho_18" data-name="Caminho 18" d="M124.312,33.546h0c.112,0,.223,0,.223-.112v-.112h0l.112.112.112.335.335.558.558,1.115,1.227,2.231.558,1.115A9.81,9.81,0,0,1,128.1,39.9l.669,1.115a9.811,9.811,0,0,1,.669,1.115,30.071,30.071,0,0,1,2.789,4.462,15.921,15.921,0,0,1,.892,2.454c.223.781.446,1.673.669,2.566l-.781.112a.389.389,0,0,1,.223-.112c0-.112.112-.112.112-.223v-.112c0-.112.112-.112.223-.112l.112.112c.112.112.112.223.223.335v.446a.3.3,0,0,1-.335.335c-.112,0-.112,0-.223-.112l-.335-.223a16.31,16.31,0,0,1-2.119-1.785c-.558-.669-1.115-1.339-1.673-2.119a22.3,22.3,0,0,1-1.115-2.342c-.335-.781-.669-1.673-1-2.454l-.446-1.227-.446-1.227c-.112-.446-.335-.892-.446-1.227l-.335-1.227-.669-2.566-.335-1.227-.112-.669v-.446h0c-.112-.112-.112-.112-.112-.223h0v-.112c0-.112.112-.112.223-.112h0l.112.112v.112c0,.112,0,.223-.112.223C124.535,33.658,124.423,33.658,124.312,33.546Z" transform="translate(-124.2 -33.1)" fill="#707070"/>
            </g>
            <g id="Grupo_40" data-name="Grupo 40" transform="translate(3.904 21.082)">
              <path id="Caminho_19" data-name="Caminho 19" d="M127.812,30.835s.112.223.446.781a3.39,3.39,0,0,0,.558.781l.669,1a9.056,9.056,0,0,0,1,1.115c.335.335.669.781,1.115,1.227.781.892,1.673,1.785,2.454,2.677a17.161,17.161,0,0,1,1.339,1.45c.446.558.781,1,1.115,1.45a30.356,30.356,0,0,1,1.339,2.789,11.577,11.577,0,0,0,.446,1.115,7.683,7.683,0,0,0,.335.892c.112.223.112.446.223.558a.109.109,0,0,0,.112.112l.112.112c.112.112.112.223,0,.223h0a.863.863,0,0,0-.335.112,1.062,1.062,0,0,1-.781-.223,7.187,7.187,0,0,1-2.119-1.45,12.375,12.375,0,0,1-2.119-2.566,10.2,10.2,0,0,1-.781-1.562c-.223-.446-.558-1-.892-1.562-.669-1-1.339-2.119-1.9-3.123a16.516,16.516,0,0,0-.892-1.45c-.223-.446-.446-1-.669-1.45a8.474,8.474,0,0,1-.446-1.227,3.257,3.257,0,0,1-.223-1,8.2,8.2,0,0,0-.223-.892c0-.112,0-.223.112-.223C127.7,30.835,127.7,30.835,127.812,30.835Z" transform="translate(-127.7 -30.5)" fill="#707070"/>
            </g>
            <g id="Grupo_41" data-name="Grupo 41" transform="translate(9.035 17.624)">
              <path id="Caminho_20" data-name="Caminho 20" d="M132.523,27.512a8.894,8.894,0,0,0,.892,1.785,7.918,7.918,0,0,0,1.115,1.562,7.679,7.679,0,0,0,1.227,1.45c.446.446.892,1,1.339,1.45a17.155,17.155,0,0,0,1.45,1.339,5.46,5.46,0,0,1,1.339,1.45c.335.558.669,1.115,1,1.785a11.765,11.765,0,0,1,.558,2.119l-1,.558v-.558c0-.112.112-.223.223-.335,0-.112.223-.112.223-.112H141l.223.335a.345.345,0,0,0,.223.112.5.5,0,0,1-.446.892h0l-.558-.223a14.905,14.905,0,0,1-3.346-2.342,6.252,6.252,0,0,1-1.115-1.673c-.335-.558-.669-1.227-1-1.785a28.4,28.4,0,0,1-1.9-3.681,13.487,13.487,0,0,1-.558-2.008c-.112-.335-.112-.669-.223-1v-1a.389.389,0,0,1,.112-.223A.109.109,0,0,1,132.523,27.512Z" transform="translate(-132.3 -27.4)" fill="#707070"/>
            </g>
            <g id="Grupo_42" data-name="Grupo 42" transform="translate(12.716 15.728)">
              <path id="Caminho_21" data-name="Caminho 21" d="M135.935,25.923l.446.669a2.334,2.334,0,0,0,.446.669l.446.558a1.959,1.959,0,0,1,.446.558,10.517,10.517,0,0,1,1.115,1.115,10.059,10.059,0,0,1,1.115,1c.446.335.781.669,1.227,1a5.847,5.847,0,0,1,1.227,1.115,6.814,6.814,0,0,1,.781,1.562c.112.335.112.558.223.892,0,.335.112.669.112.892l-1.45.558.335-1h0c0-.112.223-.112.335-.112h0a4.851,4.851,0,0,1,.781.669.675.675,0,0,1,0,.892.661.661,0,0,1-.781.112l-.669-.446a13.929,13.929,0,0,1-1.339-.892,10.06,10.06,0,0,1-1.115-1,3.857,3.857,0,0,1-.781-1.339c-.223-.446-.558-.892-.781-1.339a16.516,16.516,0,0,1-.892-1.45c-.223-.446-.558-1-.781-1.562-.112-.223-.223-.558-.335-.781l-.223-.781a8.748,8.748,0,0,1-.223-1.562c0-.112,0-.223.112-.223C135.823,25.812,135.823,25.923,135.935,25.923Z" transform="translate(-135.6 -25.7)" fill="#707070"/>
            </g>
            <g id="Grupo_43" data-name="Grupo 43" transform="translate(19.075 14.055)">
              <path id="Caminho_22" data-name="Caminho 22" d="M141.523,24.2a1.38,1.38,0,0,0,.335.223c.223.112.446.446.781.669s.669.558,1.115.892a11.108,11.108,0,0,1,1.227,1.115c.335.446.892.669,1.227,1.227a2.49,2.49,0,0,1,.335,1.562,3.235,3.235,0,0,1-.335,1.227.773.773,0,0,1-.335.446.41.41,0,0,1-.335.112h0a4.689,4.689,0,0,0-.558-.223c-.112-.112-.335-.112-.446-.223a2.439,2.439,0,0,0-.558-.335,1.54,1.54,0,0,1-.446-.335l-.446-.446c-.223-.335-.223-1-.446-1.45a7.745,7.745,0,0,1-.558-1.45,9.366,9.366,0,0,1-.446-1.339c-.223-.781-.335-1.339-.335-1.339h0c0-.112,0-.223.112-.223C141.412,24.2,141.412,24.2,141.523,24.2Z" transform="translate(-141.3 -24.2)" fill="#707070"/>
            </g>
            <g id="Grupo_44" data-name="Grupo 44" transform="translate(21.344 9.035)">
              <path id="Caminho_23" data-name="Caminho 23" d="M143.408,20.035l1.115,1.115c.669.669,1.45,1.562,2.231,2.454a11.105,11.105,0,0,0,1.227,1.115l.335.669c.112.223.112.446.223.669,0,.223.112.446.112.669a1.006,1.006,0,0,0,.112.558v.558h0a.24.24,0,0,1-.223.223h-.558a3.361,3.361,0,0,1-1.339-.335,3.133,3.133,0,0,1-1.339-1.115,1.267,1.267,0,0,1-.335-.892,7.688,7.688,0,0,0-.335-.892,10.965,10.965,0,0,1-.558-1.785,9.9,9.9,0,0,1-.335-1.562c-.223-.892-.335-1.562-.335-1.562,0-.112,0-.223.112-.223C143.3,19.923,143.3,19.923,143.408,20.035Z" transform="translate(-143.334 -19.7)" fill="#707070"/>
            </g>
            <g id="Grupo_45" data-name="Grupo 45" transform="translate(24.652 8.366)">
              <path id="Caminho_24" data-name="Caminho 24" d="M146.523,19.1a.863.863,0,0,1,.335.112,4.592,4.592,0,0,1,.892.335,2.334,2.334,0,0,1,.669.446c.223.112.335.335.558.446a5.289,5.289,0,0,1,1.115,1.115c.335.335.781.669,1.115,1a2.152,2.152,0,0,1,.335,1.115v1.115a1.353,1.353,0,0,1-.112.558h0a.24.24,0,0,1-.223.223,1.353,1.353,0,0,1-.558.112,5.756,5.756,0,0,1-1.227-.223,3.037,3.037,0,0,1-1.115-.892c-.223-.446-.223-1-.446-1.45-.112-.446-.335-.892-.446-1.339-.112-.223-.112-.446-.223-.558-.112-.223-.112-.335-.223-.446s-.112-.335-.223-.446-.223-.223-.223-.335a1.38,1.38,0,0,0-.223-.335v-.223C146.412,19.1,146.412,19.1,146.523,19.1Z" transform="translate(-146.3 -19.1)" fill="#707070"/>
            </g>
            <g id="Grupo_46" data-name="Grupo 46" transform="translate(27.726 5.689)">
              <path id="Caminho_25" data-name="Caminho 25" d="M149.44,16.7h.669a.843.843,0,0,1,.446.112c.223.112.335.112.558.223s.335.223.558.335a1.958,1.958,0,0,1,.558.446l.446.446c.223.335.781.558.892.892.223.335.112.669.112,1,0,.223-.112.335-.112.446s-.112.335-.112.446l-.223.446h0a.24.24,0,0,1-.223.223h-.558a4.909,4.909,0,0,1-1.115-.223,3.007,3.007,0,0,1-.892-.781c-.112-.335-.112-.781-.223-1.115s-.112-.669-.223-1c0-.112-.112-.335-.112-.446s-.112-.223-.112-.335-.112-.223-.223-.335-.112-.223-.223-.223l-.223-.223a.154.154,0,0,1,0-.223A.489.489,0,0,0,149.44,16.7Z" transform="translate(-149.056 -16.7)" fill="#707070"/>
            </g>
            <g id="Grupo_47" data-name="Grupo 47" transform="translate(31.568 1.562)">
              <path id="Caminho_26" data-name="Caminho 26" d="M152.612,13a.345.345,0,0,1,.223.112,1.816,1.816,0,0,0,.669.335A10.29,10.29,0,0,1,154.4,14c.335.223.558.446.892.669.223.223.669.335.892.558.112.112.112.223.112.446v.446a.671.671,0,0,1-.112.446c0,.112-.112.335-.112.446a1.759,1.759,0,0,0-.112.446.24.24,0,0,1-.223.223,1.154,1.154,0,0,1-.446.112,3.719,3.719,0,0,1-1.115,0,2.925,2.925,0,0,1-1-.558c-.223-.335-.112-.781-.223-1.115a3.963,3.963,0,0,1-.223-1.115,2.772,2.772,0,0,1-.112-.892,3.944,3.944,0,0,0-.112-.669v-.223c0-.112,0-.223.112-.223Z" transform="translate(-152.5 -13)" fill="#707070"/>
            </g>
            <g id="Grupo_48" data-name="Grupo 48" transform="translate(34.831)">
              <path id="Caminho_27" data-name="Caminho 27" d="M155.509,11.823a.345.345,0,0,0,.223-.112c.112,0,.223-.112.335-.112h.446c.112,0,.335.112.446.112.223.112.335.112.446.223a2,2,0,0,1,.781.558c.223.223.558.335.781.558a.98.98,0,0,1-.112.781,1.64,1.64,0,0,1-.558.669l-.335.335a.41.41,0,0,1-.335.112h-.446c-.223,0-.558-.112-.892-.112-.223-.112-.558-.223-.558-.335-.112-.223.112-.446.112-.669V12.269a.345.345,0,0,0-.223-.112c-.223-.112-.223-.223-.112-.335Z" transform="translate(-155.425 -11.6)" fill="#707070"/>
            </g>
          </g>
        </g>
        <g id="Grupo_52" data-name="Grupo 52" transform="translate(0 44.515)">
          <g id="Grupo_51" data-name="Grupo 51">
            <path id="Caminho_28" data-name="Caminho 28" d="M121.95,62.516l-.892,2.677c0,.112-.223.223-.335.223s-.223-.223-.223-.335h0l1.115-2.566c0-.112.112-.112.223-.112C121.95,62.293,121.95,62.4,121.95,62.516Z" transform="translate(13.914 -37.307)" fill="#707070"/>
            <path id="Caminho_29" data-name="Caminho 29" d="M119.416,69.67l-2.789,4.908a.65.65,0,1,1-1.115-.669h0l3.123-4.685a.42.42,0,0,1,.669-.112C119.416,69.113,119.528,69.447,119.416,69.67Z" transform="translate(13.325 -36.541)" fill="#707070"/>
            <path id="Caminho_30" data-name="Caminho 30" d="M113.979,78.341l-3.793,4.239a1.028,1.028,0,1,1-1.562-1.339h0l3.9-4.016a.875.875,0,0,1,1.227,0A.763.763,0,0,1,113.979,78.341Z" transform="translate(12.515 -35.619)" fill="#707070"/>
            <path id="Caminho_31" data-name="Caminho 31" d="M106.864,85.793,102.4,89.363a1.194,1.194,0,0,1-1.45-1.9h0l4.573-3.346a1.2,1.2,0,0,1,1.562.223A1.058,1.058,0,0,1,106.864,85.793Z" transform="translate(11.599 -34.816)" fill="#707070"/>
            <path id="Caminho_32" data-name="Caminho 32" d="M98.62,91.958l-4.908,2.789a1.4,1.4,0,0,1-1.339-2.454h0l5.02-2.677a1.3,1.3,0,0,1,1.785.558A1.536,1.536,0,0,1,98.62,91.958Z" transform="translate(10.584 -34.177)" fill="#707070"/>
            <path id="Caminho_33" data-name="Caminho 33" d="M89.462,96.684l-5.354,2.008a1.482,1.482,0,0,1-1-2.789h0l5.354-1.9a1.372,1.372,0,0,1,1.785.892A1.4,1.4,0,0,1,89.462,96.684Z" transform="translate(9.48 -33.66)" fill="#707070"/>
            <path id="Caminho_34" data-name="Caminho 34" d="M79.667,99.894l-5.577,1.227a1.488,1.488,0,0,1-.669-2.9h0L79,97.105a1.5,1.5,0,0,1,1.785,1.115A1.343,1.343,0,0,1,79.667,99.894Z" transform="translate(8.343 -33.3)" fill="#707070"/>
            <path id="Caminho_35" data-name="Caminho 35" d="M69.439,101.7l-5.689.223a1.4,1.4,0,0,1-.112-2.789l5.689-.335a1.486,1.486,0,0,1,1.562,1.339,1.666,1.666,0,0,1-1.45,1.562Z" transform="translate(7.194 -33.099)" fill="#707070"/>
            <path id="Caminho_36" data-name="Caminho 36" d="M58.983,101.723l-5.577-.669a1.153,1.153,0,0,1-1-1.339A1.325,1.325,0,0,1,53.74,98.6l5.689.446a1.288,1.288,0,0,1,1.227,1.45,1.5,1.5,0,0,1-1.673,1.227Z" transform="translate(6.049 -33.122)" fill="#707070"/>
            <path id="Caminho_37" data-name="Caminho 37" d="M48.838,100.072,43.372,98.4a.962.962,0,0,1-.669-1.227.989.989,0,0,1,1.115-.669l5.466,1.339a1.147,1.147,0,0,1,.781,1.339.927.927,0,0,1-1.227.892Z" transform="translate(4.928 -33.367)" fill="#707070"/>
            <path id="Caminho_38" data-name="Caminho 38" d="M39.07,96.7l-5.131-2.566A.674.674,0,0,1,34.5,92.9l5.131,2.342a.914.914,0,0,1,.446,1.115.7.7,0,0,1-1,.335Z" transform="translate(3.875 -33.784)" fill="#707070"/>
            <path id="Caminho_39" data-name="Caminho 39" d="M30,91.751,25.424,88.4a.558.558,0,1,1,.669-.892l4.685,3.235a.636.636,0,1,1-.781,1Z" transform="translate(2.909 -34.416)" fill="#707070"/>
            <path id="Caminho_40" data-name="Caminho 40" d="M21.921,85.4l-3.9-4.016c-.223-.223-.223-.558,0-.669.223-.223.558-.223.669,0L22.7,84.733a.539.539,0,0,1,0,.781.687.687,0,0,1-.781-.112Z" transform="translate(2.061 -35.206)" fill="#707070"/>
            <path id="Caminho_41" data-name="Caminho 41" d="M14.959,77.967l-3.346-4.573a.558.558,0,0,1,.892-.669h0L15.74,77.3a.551.551,0,0,1-.112.781C15.517,78.3,15.182,78.19,14.959,77.967Z" transform="translate(1.327 -36.137)" fill="#707070"/>
            <path id="Caminho_42" data-name="Caminho 42" d="M9.1,69.624,6.312,64.715a.681.681,0,0,1,.335-1,.681.681,0,0,1,1,.335h0l2.566,5.02a.747.747,0,0,1-.335.892A.653.653,0,0,1,9.1,69.624Z" transform="translate(0.716 -37.163)" fill="#707070"/>
            <path id="Caminho_43" data-name="Caminho 43" d="M4.328,60.579,2.209,55.336a.872.872,0,0,1,.558-1.227.872.872,0,0,1,1.227.558h0L6,60.021a.978.978,0,0,1-.558,1.115A.921.921,0,0,1,4.328,60.579Z" transform="translate(0.245 -38.269)" fill="#707070"/>
            <path id="Caminho_44" data-name="Caminho 44" d="M.669,50.951a8.2,8.2,0,0,1-.223-.892,3.448,3.448,0,0,0-.223-.892c0-.335-.112-.781-.112-1.115A3.8,3.8,0,0,1,0,46.935V44.927A1.238,1.238,0,0,1,1.227,43.7a1.238,1.238,0,0,1,1.227,1.227h0v.112a3.566,3.566,0,0,1-.112.781V47.6c0,.335.112.669.112,1s.112.669.112.892a5.054,5.054,0,0,1,.112.892,1.105,1.105,0,0,1-.892,1.227C1.339,51.954.781,51.508.669,50.951Z" transform="translate(0 -39.461)" fill="#707070"/>
            <path id="Caminho_45" data-name="Caminho 45" d="M3.927,40.012a5.054,5.054,0,0,0,.892-.112H5.935a1.415,1.415,0,0,1,.669.112,4.831,4.831,0,0,1,.558.112c.335.112.781.223,1.115.335a.58.58,0,0,1,.446.223.671.671,0,0,0,.446.112,2.692,2.692,0,0,1,.892.335,1.378,1.378,0,0,1-1,2.566H8.947a6.633,6.633,0,0,1-.781-.335c-.112,0-.223-.112-.335-.112s-.223-.112-.446-.112c-.335-.112-.558-.112-.892-.223-.112,0-.335-.112-.446-.112H5.712a.41.41,0,0,1-.335-.112H5.042a3.087,3.087,0,0,0-.892.112h0A1.347,1.347,0,0,1,2.7,41.573,1.4,1.4,0,0,1,3.927,40.012Z" transform="translate(0.312 -39.9)" fill="#707070"/>
            <path id="Caminho_46" data-name="Caminho 46" d="M14.256,43.736a4.944,4.944,0,0,1,.669.558c.446.335,1,.781,1.562,1.227,1.115,1,2.231,1.9,2.231,1.9a1.5,1.5,0,0,1-2.008,2.231H16.6l-2.008-1.785c-.558-.446-1.115-.892-1.562-1.227a6.828,6.828,0,0,1-.669-.558,1.342,1.342,0,0,1-.223-2.008A1.4,1.4,0,0,1,14.256,43.736Z" transform="translate(1.36 -39.497)" fill="#707070"/>
            <path id="Caminho_47" data-name="Caminho 47" d="M21.979,50.76l3.681,4.35a1.585,1.585,0,0,1-2.454,2.008h0l-3.57-4.35a1.591,1.591,0,0,1,.223-2.231A1.468,1.468,0,0,1,21.979,50.76Z" transform="translate(2.226 -38.713)" fill="#707070"/>
            <path id="Caminho_48" data-name="Caminho 48" d="M28.412,58.774l3.123,4.8a1.7,1.7,0,1,1-2.9,1.785h0l-3.012-4.8a1.785,1.785,0,0,1,.558-2.342A1.868,1.868,0,0,1,28.412,58.774Z" transform="translate(2.932 -37.803)" fill="#707070"/>
            <path id="Caminho_49" data-name="Caminho 49" d="M33.853,67.706,36.2,72.837a1.773,1.773,0,0,1-3.235,1.45h0l-2.342-5.131a1.75,1.75,0,0,1,.892-2.342A1.849,1.849,0,0,1,33.853,67.706Z" transform="translate(3.515 -36.807)" fill="#707070"/>
            <path id="Caminho_50" data-name="Caminho 50" d="M37.856,77.337,39.53,82.8a1.8,1.8,0,0,1-3.458,1h0L34.51,78.341a1.767,1.767,0,0,1,1.227-2.231A1.7,1.7,0,0,1,37.856,77.337Z" transform="translate(3.974 -35.73)" fill="#707070"/>
            <path id="Caminho_51" data-name="Caminho 51" d="M40.459,87.363l.669,5.577a1.688,1.688,0,0,1-3.346.446L37,87.809A1.778,1.778,0,0,1,38.563,85.8a1.987,1.987,0,0,1,1.9,1.562Z" transform="translate(4.271 -34.601)" fill="#707070"/>
            <path id="Caminho_52" data-name="Caminho 52" d="M41.281,97.774l-.335,5.689a1.724,1.724,0,0,1-1.785,1.562,1.7,1.7,0,0,1-1.562-1.673l.223-5.689A1.588,1.588,0,0,1,39.608,96.1a1.643,1.643,0,0,1,1.673,1.673Z" transform="translate(4.342 -33.412)" fill="#707070"/>
            <path id="Caminho_53" data-name="Caminho 53" d="M40.045,108.2l-1.45,5.466a1.448,1.448,0,1,1-2.789-.781l1.339-5.466a1.565,1.565,0,0,1,1.9-1.115,1.455,1.455,0,0,1,1,1.9Z" transform="translate(4.128 -32.238)" fill="#707070"/>
            <path id="Caminho_54" data-name="Caminho 54" d="M36.924,118.01l-2.566,5.02a1.3,1.3,0,0,1-1.785.558,1.2,1.2,0,0,1-.558-1.673l2.342-5.131a1.435,1.435,0,0,1,1.9-.669,1.472,1.472,0,0,1,.669,1.9Z" transform="translate(3.679 -31.115)" fill="#707070"/>
            <path id="Caminho_55" data-name="Caminho 55" d="M31.963,127.1,28.5,131.566a1.18,1.18,0,0,1-1.562.223,1.058,1.058,0,0,1-.223-1.45l3.235-4.685a1.228,1.228,0,0,1,1.673-.335,1.343,1.343,0,0,1,.335,1.785Z" transform="translate(3.063 -30.058)" fill="#707070"/>
            <path id="Caminho_56" data-name="Caminho 56" d="M25.369,134.969l-4.127,3.9a.789.789,0,0,1-1.115-1.115l3.9-4.127a.911.911,0,0,1,1.339,0,1.015,1.015,0,0,1,0,1.339Z" transform="translate(2.295 -29.111)" fill="#707070"/>
            <path id="Caminho_57" data-name="Caminho 57" d="M17.75,141.72l-4.573,3.346c-.223.112-.558.112-.669-.112a.525.525,0,0,1,.112-.669l4.35-3.57a.59.59,0,0,1,.892.112.691.691,0,0,1-.112.892Z" transform="translate(1.436 -28.277)" fill="#707070"/>
            <path id="Caminho_58" data-name="Caminho 58" d="M8.977,147.454,6.523,148.9c-.112,0-.223,0-.223-.112v-.223l2.231-1.562c.112-.112.335-.112.335.112.223.112.223.335.112.335Z" transform="translate(0.727 -27.541)" fill="#707070"/>
          </g>
        </g>
      </g>
    </g>
  </g>
</svg>
