<svg xmlns="http://www.w3.org/2000/svg" width="60.434" height="55.079" viewBox="0 0 60.434 55.079">
  <g id="Grupo_135" data-name="Grupo 135" transform="translate(-818 -497)">
    <path id="Caminho_6" data-name="Caminho 6" d="M59.3,47.3H57.8V44.8a.945.945,0,0,0-1-1h-30a.945.945,0,0,0-1,1v2.5H24.3a.945.945,0,0,0-1,1v5.8a.945.945,0,0,0,1,1H59.4a.945.945,0,0,0,1-1V48.3A1.09,1.09,0,0,0,59.3,47.3Zm-3.5-.4H44.2a1.2,1.2,0,1,0,0,2.4H58.3v3.8H25.2V49.3h5.1a1.216,1.216,0,0,0,1.2-1.2,1.155,1.155,0,0,0-1.2-1.2H27.7V45.8h28v1.1Z" transform="translate(818.034 496.979)" fill="#757575"/>
    <path id="Caminho_7" data-name="Caminho 7" d="M29.1,27a1,1,0,0,0-1-1,1.075,1.075,0,0,0-1,1,1,1,0,0,0,1,1A1.075,1.075,0,0,0,29.1,27Z" transform="translate(818.034 496.979)" fill="#757575"/>
    <path id="Caminho_8" data-name="Caminho 8" d="M41.2,49.3A1.2,1.2,0,1,0,40,48.1,1.216,1.216,0,0,0,41.2,49.3Z" transform="translate(818.034 496.979)" fill="#757575"/>
    <path id="Caminho_9" data-name="Caminho 9" d="M33.2,29l5.1,6.3a2.875,2.875,0,0,0-.7,1.8,3.525,3.525,0,0,0,.8,2.6A3.721,3.721,0,0,0,41.2,41a4.006,4.006,0,0,0,2.3-.8L57.6,28.7a3.829,3.829,0,0,0,1.3-2.4,3.525,3.525,0,0,0-.8-2.6,3.721,3.721,0,0,0-2.8-1.3,4.711,4.711,0,0,0-1.7.4L39.7,5.8a3.608,3.608,0,0,0,0-4.5,3.608,3.608,0,0,0-5-.5L20.6,12.3a3.829,3.829,0,0,0-1.3,2.4,3.525,3.525,0,0,0,.8,2.6,3.721,3.721,0,0,0,2.8,1.3,3.167,3.167,0,0,0,1.6-.4L32,27.4c-1,.8-2.7,2.4-4.9,4.3-7.5,6.6-20,17.6-21.6,18.9a1.793,1.793,0,0,1-1.3.5,3.241,3.241,0,0,1-1.7-.8A2.722,2.722,0,0,1,2,49.2a1.727,1.727,0,0,1,.8-1.9c1.5-1.3,15.5-11.8,23-17.5l.4-.3h0a1.234,1.234,0,0,0,.4-.8,1,1,0,0,0-1-1,1.421,1.421,0,0,0-.6.2h0l-.1.1-.1.1-.3.2c-10,7.5-21.6,16.4-23,17.5A3.566,3.566,0,0,0,.1,49.7,8.152,8.152,0,0,0,1,51.6a4.463,4.463,0,0,0,3.2,1.6,3.876,3.876,0,0,0,2.6-1c2-1.6,18.7-16.4,25-22Zm7.1,7.1L54,24.9h0l.2-.2a1.777,1.777,0,0,1,1-.4,1.425,1.425,0,0,1,1.2.6,1.128,1.128,0,0,1,.3,1.1,1.1,1.1,0,0,1-.6,1l-14,11.6a1.68,1.68,0,0,1-2.2-.2,1.128,1.128,0,0,1-.3-1.1,1.1,1.1,0,0,1,.6-1l.1-.2Zm-.5-2.2-5.7-7h0l-1.8-2.2h0L26,17,38.1,7.1,51.9,24Zm-18-20.1L35.9,2.3a1.777,1.777,0,0,1,1-.4,1.425,1.425,0,0,1,1.2.6,1.68,1.68,0,0,1-.2,2.2L23.8,16.2a1.431,1.431,0,0,1-1.1.3,1.231,1.231,0,0,1-1-.5,1.128,1.128,0,0,1-.3-1.1A1.19,1.19,0,0,1,21.8,13.8Z" transform="translate(818.034 496.979)" fill="#757575"/>
  </g>
</svg>
