<svg xmlns="http://www.w3.org/2000/svg" width="51.3" height="53.052" viewBox="0 0 51.3 53.052">
  <g id="Grupo_130" data-name="Grupo 130" transform="translate(-823.7 -366.724)">
    <path id="XMLID_10_" d="M46.942,35.771A1.071,1.071,0,1,1,45.871,34.7c.681.1,1.071.487,1.071,1.071Zm0,0" transform="translate(822.51 365.997)" fill="#707070"/>
    <path id="XMLID_7_" d="M6.642,35.771A1.071,1.071,0,1,1,5.571,34.7a1.151,1.151,0,0,1,1.071,1.071Zm0,0" transform="translate(823.58 365.997)" fill="#707070"/>
    <path id="XMLID_2_" d="M50.229,50.711H41.371l-.1-25.309A1.08,1.08,0,0,0,40.2,24.331h0A1.08,1.08,0,0,0,39.132,25.4l.1,25.309H36.212V39.419a1.08,1.08,0,0,0-1.071-1.071h0a1.08,1.08,0,0,0-1.071,1.071V50.711H31.539V37.083A5.694,5.694,0,0,0,36.8,31.534V21.508a10.748,10.748,0,0,0-.973-4.575,8.424,8.424,0,0,1,5.354,2.336,8.115,8.115,0,0,1,2.434,5.743v5.841a1.08,1.08,0,0,0,1.071,1.071h0a1.08,1.08,0,0,0,1.071-1.071V25.012a9.648,9.648,0,0,0-3.115-7.2,11.315,11.315,0,0,0-3.991-2.434A5.356,5.356,0,0,0,40.3,11.384a5.442,5.442,0,0,0-5.451-5.451h0a5.679,5.679,0,0,0-2.531.584,1,1,0,1,0,.973,1.752,2.856,2.856,0,0,1,1.557-.389,3.407,3.407,0,1,1,0,6.814h-.292a11.9,11.9,0,0,0-5.938-4.283,5.954,5.954,0,0,0,2.044-4.575,6.035,6.035,0,0,0-12.071,0,5.863,5.863,0,0,0,2.239,4.672A11.939,11.939,0,0,0,15.38,14.6H14.6a3.407,3.407,0,1,1,0-6.814,3.2,3.2,0,0,1,1.655.389,1,1,0,0,0,.973-1.752A9.864,9.864,0,0,0,14.7,6.03a5.442,5.442,0,0,0-5.451,5.451A5.24,5.24,0,0,0,11.1,15.57a10.248,10.248,0,0,0-6.619,9.54V30.95a1.071,1.071,0,0,0,2.142,0V25.109a8.353,8.353,0,0,1,7.787-8.177,10.748,10.748,0,0,0-.973,4.575V31.534a5.573,5.573,0,0,0,5.354,5.549V50.711H15.964V39.419a1.071,1.071,0,0,0-2.142,0V50.711H11.292V25.4a1.071,1.071,0,1,0-2.142,0V50.711H1.071a1.071,1.071,0,1,0,0,2.142H50.229A1.08,1.08,0,0,0,51.3,51.781a1.235,1.235,0,0,0-1.071-1.071ZM20.832,6.03a3.991,3.991,0,1,1,7.982,0,3.991,3.991,0,0,1-7.982,0Zm9.832,14.8A1.08,1.08,0,0,0,29.592,21.9V50.808h-3.7V36.4a1.071,1.071,0,0,0-2.142,0V50.711H20.637V21.9a1.071,1.071,0,0,0-2.142,0V35.038a3.587,3.587,0,0,1-3.31-3.5V21.508a9.536,9.536,0,0,1,1.46-5.062,9.774,9.774,0,0,1,8.274-4.38,9.9,9.9,0,0,1,8.274,4.38,9.062,9.062,0,0,1,1.46,5.062V31.534a3.642,3.642,0,0,1-3.115,3.5V21.9a.838.838,0,0,0-.876-1.071Zm0,0" transform="translate(823.7 366.924)" fill="#707070"/>
  </g>
</svg>
