<svg xmlns="http://www.w3.org/2000/svg" width="51.4" height="54.4" viewBox="0 0 51.4 54.4">
  <g id="Grupo_132" data-name="Grupo 132" transform="translate(-935 -367)">
    <g id="Grupo_122" data-name="Grupo 122">
      <path id="XMLID_8_" d="M50.3,52.1H48V18.4a2.8,2.8,0,0,0-2.8-2.8H40a2.8,2.8,0,0,0-2.8,2.8V52.1H31.3V33.7a2.8,2.8,0,0,0-2.8-2.8H23.3a2.8,2.8,0,0,0-2.8,2.8V52.2H14.6V42.6a2.8,2.8,0,0,0-2.8-2.8H6.4a2.8,2.8,0,0,0-2.8,2.8v9.6H1.1a1.1,1.1,0,1,0,0,2.2H50.3a1.11,1.11,0,0,0,1.1-1.1,1.135,1.135,0,0,0-1.1-1.2Zm-38,0H5.6V42.5a.684.684,0,0,1,.7-.7h5.2a.684.684,0,0,1,.7.7v9.6Zm16.8,0H22.4V33.7a.684.684,0,0,1,.7-.7h5.2a.684.684,0,0,1,.7.7V52.1Zm16.8,0H39.2V18.4a.684.684,0,0,1,.7-.7h5.2a.684.684,0,0,1,.7.7V52.1Zm0,0" transform="translate(935 367)" fill="#707070"/>
      <path id="XMLID_5_" d="M48,1.1a1.135,1.135,0,0,0-.3-.8,1.33,1.33,0,0,0-.8-.3H40.4a1.11,1.11,0,0,0-1.1,1.1,1.11,1.11,0,0,0,1.1,1.1h4L33.9,12.6,30,8.7a1.08,1.08,0,0,0-.7-.3.779.779,0,0,0-.7.3l-19,19a1.051,1.051,0,0,0,.7,1.8.908.908,0,0,0,.7-.3L29.3,10.9l3.9,3.9a1.088,1.088,0,0,0,1.5,0L45.9,3.6V7.2a1.1,1.1,0,1,0,2.2,0L48,1.1Zm0,0" transform="translate(935 367)" fill="#707070"/>
    </g>
    <path id="XMLID_2_" d="M7.6,32.1A1.1,1.1,0,1,1,6.5,31c.7.1,1.1.5,1.1,1.1Zm0,0" transform="translate(935 367)" fill="#707070"/>
  </g>
</svg>
