<svg xmlns="http://www.w3.org/2000/svg" width="73.7" height="44.6" viewBox="0 0 73.7 44.6">
  <g id="Grupo_136" data-name="Grupo 136" transform="translate(-925 -507)">
    <path id="Caminho_10" data-name="Caminho 10" d="M51.3,39.2a.987.987,0,0,1-1-.9v-.8A9.5,9.5,0,0,1,59.8,28a9.377,9.377,0,0,1,9.4,9,3.66,3.66,0,0,0,2.6-3.5V22.7a3.139,3.139,0,0,0-.7-2.1L64.3,11a3.564,3.564,0,0,0-3-1.5h-10a3.691,3.691,0,0,0-3.7,3.7v25a1,1,0,0,1-2,0v-25a5.7,5.7,0,0,1,5.7-5.7h10a5.6,5.6,0,0,1,4.6,2.4l6.8,9.6a5.581,5.581,0,0,1,1,3.3V33.6A5.7,5.7,0,0,1,68,39.3H66.9l.1-1.1v-.6a7.5,7.5,0,0,0-15,0v.6c.4.4,0,.9-.7,1Z" transform="translate(925 507)" fill="#757575"/>
    <path id="Caminho_11" data-name="Caminho 11" d="M59.8,44.4a7,7,0,1,1,7-7A7.02,7.02,0,0,1,59.8,44.4Zm0-11.9a5,5,0,1,0,5,5A5.08,5.08,0,0,0,59.8,32.5Z" transform="translate(924.7 507.2)" fill="#757575"/>
    <path id="Caminho_12" data-name="Caminho 12" d="M19,44.4a7,7,0,1,1,7-7A7.02,7.02,0,0,1,19,44.4Zm0-11.9a5,5,0,1,0,5,5A4.951,4.951,0,0,0,19,32.5Z" transform="translate(925 507)" fill="#757575"/>
    <path id="Caminho_13" data-name="Caminho 13" d="M66.6,23.9H53.9a1,1,0,0,1,0-2H66.6a.349.349,0,0,0,.2-.1s.1-.2,0-.3l-4-6.9a.713.713,0,0,0-.6-.3H51.9a.684.684,0,0,0-.7.7v4.3a1,1,0,0,1-2,0V15a2.689,2.689,0,0,1,2.7-2.7H62.2a2.645,2.645,0,0,1,2.3,1.3l4,6.9a2.354,2.354,0,0,1,0,2.3A2.036,2.036,0,0,1,66.6,23.9Z" transform="translate(925 507)" fill="#757575"/>
    <path id="Caminho_14" data-name="Caminho 14" d="M39.1,38.5H26.5v-1a7.5,7.5,0,0,0-15,0v1H5.9A5.911,5.911,0,0,1,0,32.6V5.9A5.977,5.977,0,0,1,5.9,0h.7a.945.945,0,0,1,1,1,.945.945,0,0,1-1,1H5.9A3.971,3.971,0,0,0,2,5.9V32.6a3.9,3.9,0,0,0,3.9,3.9H9.6a9.448,9.448,0,0,1,18.8,0H39a3.9,3.9,0,0,0,3.9-3.9V5.9A3.82,3.82,0,0,0,39.1,2H17.7a.945.945,0,0,1-1-1,.945.945,0,0,1,1-1H39.1A5.977,5.977,0,0,1,45,5.9V32.6A5.977,5.977,0,0,1,39.1,38.5Z" transform="translate(925 507)" fill="#757575"/>
    <circle id="Elipse_4" data-name="Elipse 4" cx="1" cy="1" r="1" transform="translate(938.6 507)" fill="#757575"/>
    <circle id="Elipse_5" data-name="Elipse 5" cx="1" cy="1" r="1" transform="translate(974.2 528.9)" fill="#757575"/>
  </g>
</svg>
